<?xml version="1.0" encoding="UTF-8"?>
<svg id="horizontal" xmlns="http://www.w3.org/2000/svg" viewBox="0 0 936.45 157.88">
  <defs>
    <style>
      .cls-1 {
        stroke-width: 2.35px;
      }

      .cls-1, .cls-2 {
        fill: none;
        stroke: #c89b3c;
        stroke-miterlimit: 10;
      }

      .cls-3 {
        fill: #c89b3c;
      }

      .cls-2 {
        stroke-width: 2.68px;
      }
    </style>
  </defs>
  <g>
    <circle class="cls-2" cx="78.94" cy="78.94" r="67.51"/>
    <circle class="cls-1" cx="78.94" cy="78.94" r="59.21"/>
    <path class="cls-1" d="M78.94,0v157.88"/>
    <path class="cls-1" d="M157.88,78.94H0"/>
    <path class="cls-1" d="M126.68,31.2c-31.83,31.83-63.65,63.65-95.48,95.48"/>
    <path class="cls-1" d="M31.2,31.2c31.83,31.83,63.65,63.65,95.48,95.48"/>
    <path class="cls-1" d="M31.2,31.2c6.93.18,39.89,1.75,66.81,28.67,26.92,26.92,28.49,59.87,28.67,66.8"/>
    <path class="cls-1" d="M31.2,126.68c.18-6.93,1.75-39.89,28.67-66.81,26.92-26.92,59.87-28.49,66.8-28.67"/>
    <path class="cls-1" d="M126.68,31.2c-.18,6.93-1.75,39.89-28.67,66.81-26.92,26.92-59.87,28.49-66.8,28.67"/>
  </g>
  <g>
    <path class="cls-3" d="M232.9,60.55c.08-.16.17-.32.27-.48.1-.16.27-.28.51-.36.24-.08.56-.15.96-.21.4-.06.96-.09,1.68-.09.32,0,.74,0,1.26-.03.52-.02,1.08-.04,1.68-.06.6-.02,1.21-.05,1.83-.09.62-.04,1.19-.08,1.71-.12.08.4.12.72.12.96,0,.64-.2.98-.6,1.02-1.44.2-2.4.47-2.88.81-.48.34-.72.79-.72,1.35,0,.04.03.57.09,1.59.06,1.02.15,2.72.27,5.1.12,2.38.27,5.55.45,9.51.18,3.96.39,8.88.63,14.76.04.76.3,1.32.78,1.68.48.36,1.46.66,2.94.9.2.04.35.15.45.33s.15.39.15.63-.04.56-.12.96c-1.4-.08-2.67-.15-3.81-.21-1.14-.06-2.19-.09-3.15-.09-.4,0-.9,0-1.5.03-.6.02-1.23.04-1.89.06-.66.02-1.31.05-1.95.09-.64.04-1.2.08-1.68.12-.08-.4-.12-.72-.12-.96,0-.64.2-.96.6-.96,1.6-.32,2.69-.64,3.27-.96.58-.32.87-.86.87-1.62,0-.12-.03-.86-.09-2.22-.06-1.36-.14-3.02-.24-4.98-.1-1.96-.2-4.08-.3-6.36-.1-2.28-.2-4.43-.3-6.45-.1-2.02-.19-3.76-.27-5.22-.08-1.46-.12-2.35-.12-2.67l-13.14,31.74c-.16.36-.31.63-.45.81-.14.18-.33.27-.57.27-.28,0-.46-.02-.54-.06l-14.7-33.72c-.04.4-.09,1.37-.15,2.91-.06,1.54-.14,3.37-.24,5.49-.1,2.12-.21,4.36-.33,6.72-.12,2.36-.23,4.54-.33,6.54-.1,2-.18,3.68-.24,5.04-.06,1.36-.09,2.08-.09,2.16,0,1.24,1.36,2.1,4.08,2.58.4.04.6.36.6.96,0,.24-.04.56-.12.96-1.08-.08-2.14-.15-3.18-.21-1.04-.06-1.96-.09-2.76-.09-.64,0-1.5.03-2.58.09-1.08.06-2.1.13-3.06.21-.08-.4-.12-.72-.12-.96,0-.56.2-.88.6-.96,1.08-.2,1.95-.49,2.61-.87.66-.38,1.03-.95,1.11-1.71,0-.36.04-1.37.12-3.03.08-1.66.17-3.63.27-5.91.1-2.28.21-4.7.33-7.26.12-2.56.23-4.93.33-7.11.1-2.18.18-3.98.24-5.4.06-1.42.09-2.15.09-2.19,0-.64-.25-1.11-.75-1.41-.5-.3-1.45-.57-2.85-.81-.4-.04-.6-.38-.6-1.02,0-.24.04-.56.12-.96.52.04,1.11.08,1.77.12s1.32.07,1.98.09c.66.02,1.29.04,1.89.06.6.02,1.08.03,1.44.03.72,0,1.28.03,1.68.09.4.06.72.13.96.21.24.08.41.2.51.36.1.16.19.32.27.48l12.84,29.94,12.18-29.94Z"/>
    <path class="cls-3" d="M264.1,61.87v15.36h9.36c.8,0,1.37-.39,1.71-1.17.34-.78.61-1.73.81-2.85.12-.52.48-.78,1.08-.78.12,0,.28.02.48.06.2.04.36.08.48.12-.08.88-.15,1.88-.21,3-.06,1.12-.09,2.1-.09,2.94,0,.68.02,1.51.06,2.49.04.98.12,2.09.24,3.33-.32.08-.62.12-.9.12-.64,0-1.02-.26-1.14-.78-.2-1.12-.47-2.07-.81-2.85s-.91-1.17-1.71-1.17h-9.36v14.16c0,.84.54,1.4,1.62,1.68,1.08.28,2.86.42,5.34.42h3.3c1.16,0,2.17-.17,3.03-.51s1.62-.8,2.28-1.38,1.25-1.27,1.77-2.07c.52-.8,1.02-1.68,1.5-2.64.12-.28.42-.42.9-.42.2,0,.41.06.63.18s.43.24.63.36c-.36.76-.67,1.67-.93,2.73-.26,1.06-.51,2.07-.75,3.03s-.49,1.78-.75,2.46c-.26.68-.59,1.02-.99,1.02-.32,0-.78-.02-1.38-.06-.6-.04-1.25-.07-1.95-.09-.7-.02-1.41-.05-2.13-.09-.72-.04-1.34-.06-1.86-.06h-13.14c-1.16,0-2.4.03-3.72.09-1.32.06-2.58.13-3.78.21-.08-.4-.12-.72-.12-.96,0-.56.2-.88.6-.96,1.52-.28,2.61-.58,3.27-.9.66-.32.99-.88.99-1.68v-30.54c0-.8-.29-1.35-.87-1.65-.58-.3-1.71-.61-3.39-.93-.4-.08-.6-.42-.6-1.02,0-.2,0-.37.03-.51.02-.14.05-.29.09-.45,1.72.12,3.16.2,4.32.24s2.2.06,3.12.06h11.82c1.8,0,3.36-.06,4.68-.18s2.2-.18,2.64-.18c.52,0,.87.33,1.05.99.18.66.33,1.45.45,2.37.12.92.26,1.9.42,2.94s.46,1.92.9,2.64c-.32.24-.68.36-1.08.36-.52,0-.86-.18-1.02-.54-.48-1.04-.94-1.93-1.38-2.67s-.95-1.35-1.53-1.83c-.58-.48-1.28-.84-2.1-1.08-.82-.24-1.83-.36-3.03-.36h-8.88Z"/>
    <path class="cls-3" d="M308.44,80.89h-4.44v13.2c0,.88.41,1.48,1.23,1.8.82.32,2.07.58,3.75.78.48.08.72.42.72,1.02,0,.28-.04.62-.12,1.02-1.08-.08-2.39-.15-3.93-.21-1.54-.06-3.05-.09-4.53-.09-1.04,0-2.24.03-3.6.09-1.36.06-2.64.13-3.84.21-.08-.4-.12-.72-.12-.96,0-.56.22-.88.66-.96,1.52-.24,2.59-.53,3.21-.87.62-.34.93-.91.93-1.71v-30.54c0-.76-.29-1.33-.87-1.71-.58-.38-1.71-.67-3.39-.87-.4-.04-.6-.38-.6-1.02,0-.24.04-.56.12-.96,1.2.08,2.44.15,3.72.21,1.28.06,2.5.09,3.66.09h8.1c4.32,0,7.58.95,9.78,2.85,2.2,1.9,3.3,4.47,3.3,7.71,0,.88-.15,1.8-.45,2.76-.3.96-.76,1.9-1.38,2.82-.62.92-1.42,1.77-2.4,2.55-.98.78-2.13,1.41-3.45,1.89l10.02,13.92c.76,1.04,1.6,1.76,2.52,2.16.92.4,1.78.7,2.58.9.36.08.54.36.54.84,0,.32-.04.68-.12,1.08-.92-.08-2.04-.15-3.36-.21-1.32-.06-2.54-.09-3.66-.09-.84,0-1.69-.36-2.55-1.08-.86-.72-1.67-1.64-2.43-2.76l-9.6-13.86ZM307.18,78.43c2.8,0,4.96-.59,6.48-1.77,1.52-1.18,2.28-3.25,2.28-6.21,0-1.24-.16-2.38-.48-3.42-.32-1.04-.83-1.94-1.53-2.7-.7-.76-1.62-1.36-2.76-1.8-1.14-.44-2.53-.66-4.17-.66h-3v16.56h3.18Z"/>
    <path class="cls-3" d="M346.23,94.21c0,.8.28,1.35.84,1.65.56.3,1.6.61,3.12.93.4.08.6.4.6.96,0,.24-.04.56-.12.96-1.24-.08-2.48-.15-3.72-.21-1.24-.06-2.42-.09-3.54-.09s-2.27.03-3.57.09c-1.3.06-2.53.13-3.69.21-.08-.4-.12-.72-.12-.96,0-.56.2-.88.6-.96,1.52-.28,2.56-.58,3.12-.9.56-.32.84-.88.84-1.68v-30.54c0-.8-.28-1.37-.84-1.71-.56-.34-1.6-.63-3.12-.87-.24-.04-.4-.16-.48-.36-.08-.2-.12-.42-.12-.66s.04-.56.12-.96c1.2.08,2.45.15,3.75.21,1.3.06,2.47.09,3.51.09s2.15-.03,3.45-.09c1.3-.06,2.57-.13,3.81-.21.08.4.12.72.12.96,0,.6-.2.94-.6,1.02-1.52.24-2.56.53-3.12.87-.56.34-.84.91-.84,1.71v30.54Z"/>
    <path class="cls-3" d="M399.93,78.91c0,2.36-.41,4.7-1.23,7.02-.82,2.32-2.06,4.41-3.72,6.27-1.66,1.86-3.76,3.36-6.3,4.5-2.54,1.14-5.51,1.71-8.91,1.71h-12.3c-1.04,0-2.22.03-3.54.09-1.32.06-2.6.13-3.84.21-.08-.4-.12-.72-.12-.96,0-.56.22-.88.66-.96,1.48-.36,2.54-.7,3.18-1.02.64-.32.96-.84.96-1.56v-30.54c0-.8-.3-1.36-.9-1.68-.6-.32-1.68-.62-3.24-.9-.24-.04-.41-.16-.51-.36-.1-.2-.15-.42-.15-.66s.04-.56.12-.96c.84.08,1.57.13,2.19.15.62.02,1.21.05,1.77.09.56.04,1.11.06,1.65.06h14.01c3.36,0,6.31.52,8.85,1.56,2.54,1.04,4.65,2.44,6.33,4.2,1.68,1.76,2.94,3.82,3.78,6.18s1.26,4.88,1.26,7.56ZM393.63,80.05c0-6.16-1.53-10.73-4.59-13.71-3.06-2.98-7.53-4.47-13.41-4.47h-5.22v31.92c0,.4.1.74.3,1.02.2.28.54.5,1.02.66.48.16,1.14.28,1.98.36.84.08,1.9.12,3.18.12,3.08,0,5.68-.37,7.8-1.11,2.12-.74,3.84-1.8,5.16-3.18s2.28-3.05,2.88-5.01c.6-1.96.9-4.16.9-6.6Z"/>
    <path class="cls-3" d="M419.19,94.21c0,.8.28,1.35.84,1.65.56.3,1.6.61,3.12.93.4.08.6.4.6.96,0,.24-.04.56-.12.96-1.24-.08-2.48-.15-3.72-.21-1.24-.06-2.42-.09-3.54-.09s-2.27.03-3.57.09c-1.3.06-2.53.13-3.69.21-.08-.4-.12-.72-.12-.96,0-.56.2-.88.6-.96,1.52-.28,2.56-.58,3.12-.9.56-.32.84-.88.84-1.68v-30.54c0-.8-.28-1.37-.84-1.71-.56-.34-1.6-.63-3.12-.87-.24-.04-.4-.16-.48-.36-.08-.2-.12-.42-.12-.66s.04-.56.12-.96c1.2.08,2.45.15,3.75.21,1.3.06,2.47.09,3.51.09s2.15-.03,3.45-.09c1.3-.06,2.57-.13,3.81-.21.08.4.12.72.12.96,0,.6-.2.94-.6,1.02-1.52.24-2.56.53-3.12.87-.56.34-.84.91-.84,1.71v30.54Z"/>
    <path class="cls-3" d="M443.43,61.87v15.36h9.36c.8,0,1.37-.39,1.71-1.17.34-.78.61-1.73.81-2.85.12-.52.48-.78,1.08-.78.12,0,.28.02.48.06.2.04.36.08.48.12-.08.88-.15,1.88-.21,3-.06,1.12-.09,2.1-.09,2.94,0,.68.02,1.51.06,2.49.04.98.12,2.09.24,3.33-.32.08-.62.12-.9.12-.64,0-1.02-.26-1.14-.78-.2-1.12-.47-2.07-.81-2.85-.34-.78-.91-1.17-1.71-1.17h-9.36v14.16c0,.84.54,1.4,1.62,1.68,1.08.28,2.86.42,5.34.42h3.3c1.16,0,2.17-.17,3.03-.51.86-.34,1.62-.8,2.28-1.38s1.25-1.27,1.77-2.07c.52-.8,1.02-1.68,1.5-2.64.12-.28.42-.42.9-.42.2,0,.41.06.63.18s.43.24.63.36c-.36.76-.67,1.67-.93,2.73-.26,1.06-.51,2.07-.75,3.03s-.49,1.78-.75,2.46c-.26.68-.59,1.02-.99,1.02-.32,0-.78-.02-1.38-.06-.6-.04-1.25-.07-1.95-.09-.7-.02-1.41-.05-2.13-.09s-1.34-.06-1.86-.06h-13.14c-1.16,0-2.4.03-3.72.09-1.32.06-2.58.13-3.78.21-.08-.4-.12-.72-.12-.96,0-.56.2-.88.6-.96,1.52-.28,2.61-.58,3.27-.9s.99-.88.99-1.68v-30.54c0-.8-.29-1.35-.87-1.65-.58-.3-1.71-.61-3.39-.93-.4-.08-.6-.42-.6-1.02,0-.2,0-.37.03-.51.02-.14.05-.29.09-.45,1.72.12,3.16.2,4.32.24,1.16.04,2.2.06,3.12.06h11.82c1.8,0,3.36-.06,4.68-.18,1.32-.12,2.2-.18,2.64-.18.52,0,.87.33,1.05.99s.33,1.45.45,2.37c.12.92.26,1.9.42,2.94.16,1.04.46,1.92.9,2.64-.32.24-.68.36-1.08.36-.52,0-.86-.18-1.02-.54-.48-1.04-.94-1.93-1.38-2.67-.44-.74-.95-1.35-1.53-1.83-.58-.48-1.28-.84-2.1-1.08-.82-.24-1.83-.36-3.03-.36h-8.88Z"/>
    <path class="cls-3" d="M499.23,94.21c0,.8.28,1.35.84,1.65.56.3,1.6.61,3.12.93.4.08.6.4.6.96,0,.24-.04.56-.12.96-1.24-.08-2.48-.15-3.72-.21-1.24-.06-2.42-.09-3.54-.09s-2.27.03-3.57.09c-1.3.06-2.53.13-3.69.21-.08-.4-.12-.72-.12-.96,0-.56.2-.88.6-.96,1.52-.28,2.56-.58,3.12-.9.56-.32.84-.88.84-1.68v-30.54c0-.8-.28-1.37-.84-1.71-.56-.34-1.6-.63-3.12-.87-.24-.04-.4-.16-.48-.36s-.12-.42-.12-.66.04-.56.12-.96c1.2.08,2.45.15,3.75.21,1.3.06,2.47.09,3.51.09s2.15-.03,3.45-.09c1.3-.06,2.57-.13,3.81-.21.08.4.12.72.12.96,0,.6-.2.94-.6,1.02-1.52.24-2.56.53-3.12.87-.56.34-.84.91-.84,1.71v30.54Z"/>
    <path class="cls-3" d="M543.99,88.87v-25.08c0-.88-.32-1.5-.96-1.86-.64-.36-1.72-.64-3.24-.84-.44-.04-.66-.38-.66-1.02,0-.24.04-.56.12-.96,1,.08,2.02.15,3.06.21,1.04.06,2.02.09,2.94.09s1.8-.03,2.76-.09c.96-.06,1.9-.13,2.82-.21.08.4.12.72.12.96,0,.64-.2.98-.6,1.02-1.36.2-2.29.48-2.79.84-.5.36-.75.94-.75,1.74v35.34c-.08.04-.22.07-.42.09-.2.02-.36.03-.48.03-.28,0-.54-.07-.78-.21-.24-.14-.52-.43-.84-.87l-24.36-32.1v28.26c0,.8.28,1.36.84,1.68s1.64.62,3.24.9c.4.08.6.4.6.96,0,.24-.04.56-.12.96-1-.08-2.01-.15-3.03-.21-1.02-.06-1.97-.09-2.85-.09-.8,0-1.74.03-2.82.09-1.08.06-2.06.13-2.94.21-.08-.4-.12-.72-.12-.96,0-.56.22-.88.66-.96,1.44-.28,2.41-.58,2.91-.9s.75-.88.75-1.68v-30.84c0-.64-.23-1.13-.69-1.47-.46-.34-1.41-.61-2.85-.81-.44-.08-.66-.42-.66-1.02,0-.2.02-.38.06-.54,0-.12.02-.26.06-.42.8.08,1.56.14,2.28.18.64.04,1.32.07,2.04.09.72.02,1.36.03,1.92.03,1.16,0,1.93.04,2.31.12s.69.28.93.6l21.54,28.74Z"/>
    <path class="cls-3" d="M589.41,64.21c.16-.44.24-.84.24-1.2,0-.56-.28-.98-.84-1.26-.56-.28-1.46-.5-2.7-.66-.48-.04-.72-.38-.72-1.02,0-.2.02-.38.06-.54,0-.12.02-.26.06-.42.08,0,.34.02.78.06.44.04.97.08,1.59.12.62.04,1.29.07,2.01.09.72.02,1.4.03,2.04.03,1.32,0,2.53-.04,3.63-.12,1.1-.08,1.75-.14,1.95-.18,0,.12.02.26.06.42,0,.12,0,.23.03.33.02.1.03.19.03.27,0,.64-.22,1-.66,1.08-1.28.08-2.22.28-2.82.6s-1.06.86-1.38,1.62l-14.82,35.64c-.08,0-.17,0-.27.03-.1.02-.19.03-.27.03-.44,0-.8-.34-1.08-1.02l-14.1-34.98c-.24-.56-.64-.98-1.2-1.26-.56-.28-1.56-.52-3-.72-.44-.04-.66-.4-.66-1.08,0-.32.04-.64.12-.96,1.2.08,2.5.15,3.9.21,1.4.06,2.62.09,3.66.09s2.22-.03,3.66-.09c1.44-.06,2.78-.13,4.02-.21.08.4.12.72.12.96,0,.6-.24.94-.72,1.02-2.36.24-3.54.88-3.54,1.92,0,.28.04.54.12.78l10.2,26.1,10.5-25.68Z"/>
    <path class="cls-3" d="M614.79,61.87v15.36h9.36c.8,0,1.37-.39,1.71-1.17.34-.78.61-1.73.81-2.85.12-.52.48-.78,1.08-.78.12,0,.28.02.48.06.2.04.36.08.48.12-.08.88-.15,1.88-.21,3-.06,1.12-.09,2.1-.09,2.94,0,.68.02,1.51.06,2.49.04.98.12,2.09.24,3.33-.32.08-.62.12-.9.12-.64,0-1.02-.26-1.14-.78-.2-1.12-.47-2.07-.81-2.85-.34-.78-.91-1.17-1.71-1.17h-9.36v14.16c0,.84.54,1.4,1.62,1.68,1.08.28,2.86.42,5.34.42h3.3c1.16,0,2.17-.17,3.03-.51s1.62-.8,2.28-1.38,1.25-1.27,1.77-2.07c.52-.8,1.02-1.68,1.5-2.64.12-.28.42-.42.9-.42.2,0,.41.06.63.18s.43.24.63.36c-.36.76-.67,1.67-.93,2.73-.26,1.06-.51,2.07-.75,3.03s-.49,1.78-.75,2.46c-.26.68-.59,1.02-.99,1.02-.32,0-.78-.02-1.38-.06-.6-.04-1.25-.07-1.95-.09-.7-.02-1.41-.05-2.13-.09s-1.34-.06-1.86-.06h-13.14c-1.16,0-2.4.03-3.72.09-1.32.06-2.58.13-3.78.21-.08-.4-.12-.72-.12-.96,0-.56.2-.88.6-.96,1.52-.28,2.61-.58,3.27-.9s.99-.88.99-1.68v-30.54c0-.8-.29-1.35-.87-1.65-.58-.3-1.71-.61-3.39-.93-.4-.08-.6-.42-.6-1.02,0-.2,0-.37.03-.51.02-.14.05-.29.09-.45,1.72.12,3.16.2,4.32.24,1.16.04,2.2.06,3.12.06h11.82c1.8,0,3.36-.06,4.68-.18,1.32-.12,2.2-.18,2.64-.18.52,0,.87.33,1.05.99.18.66.33,1.45.45,2.37.12.92.26,1.9.42,2.94.16,1.04.46,1.92.9,2.64-.32.24-.68.36-1.08.36-.52,0-.86-.18-1.02-.54-.48-1.04-.94-1.93-1.38-2.67-.44-.74-.95-1.35-1.53-1.83-.58-.48-1.28-.84-2.1-1.08-.82-.24-1.83-.36-3.03-.36h-8.88Z"/>
    <path class="cls-3" d="M669.81,68.83c-.4.08-.7.12-.9.12-.52,0-.9-.1-1.14-.3s-.42-.42-.54-.66c-1.04-2.28-2.28-3.94-3.72-4.98-1.44-1.04-3.4-1.56-5.88-1.56-.96,0-1.87.13-2.73.39-.86.26-1.61.64-2.25,1.14s-1.15,1.11-1.53,1.83c-.38.72-.57,1.52-.57,2.4,0,1.88.79,3.42,2.37,4.62,1.58,1.2,3.91,2.42,6.99,3.66,3.84,1.52,6.67,3.21,8.49,5.07,1.82,1.86,2.73,4.15,2.73,6.87,0,1.64-.25,3.17-.75,4.59-.5,1.42-1.28,2.66-2.34,3.72-1.06,1.06-2.43,1.89-4.11,2.49-1.68.6-3.7.9-6.06.9-2.48,0-4.73-.26-6.75-.78-2.02-.52-3.73-1.2-5.13-2.04-.12-1.68-.3-3.3-.54-4.86-.24-1.56-.52-3.12-.84-4.68.28-.12.62-.18,1.02-.18.48,0,.85.11,1.11.33.26.22.49.57.69,1.05,1,2.88,2.29,5,3.87,6.36,1.58,1.36,3.79,2.04,6.63,2.04,1.28,0,2.4-.18,3.36-.54s1.76-.86,2.4-1.5c.64-.64,1.12-1.36,1.44-2.16.32-.8.48-1.66.48-2.58,0-2.08-.71-3.72-2.13-4.92s-3.45-2.28-6.09-3.24c-1.72-.64-3.28-1.31-4.68-2.01-1.4-.7-2.6-1.51-3.6-2.43-1-.92-1.77-1.99-2.31-3.21-.54-1.22-.81-2.67-.81-4.35,0-1.48.27-2.87.81-4.17.54-1.3,1.32-2.43,2.34-3.39,1.02-.96,2.25-1.72,3.69-2.28,1.44-.56,3.06-.84,4.86-.84s3.68.18,5.4.54c1.72.36,3.66.96,5.82,1.8.08,1.2.19,2.49.33,3.87.14,1.38.33,2.67.57,3.87Z"/>
    <path class="cls-3" d="M699.81,61.87v32.04c0,.92.38,1.57,1.14,1.95.76.38,2.04.67,3.84.87.44,0,.66.32.66.96,0,.28-.04.62-.12,1.02-1.28-.08-2.63-.15-4.05-.21-1.42-.06-2.85-.09-4.29-.09s-2.83.03-4.29.09c-1.46.06-2.83.13-4.11.21-.08-.4-.12-.74-.12-1.02,0-.56.2-.88.6-.96,1.8-.24,3.1-.54,3.9-.9.8-.36,1.2-1,1.2-1.92v-32.04h-6.18c-1.2,0-2.21.12-3.03.36-.82.24-1.53.6-2.13,1.08-.6.48-1.12,1.1-1.56,1.86-.44.76-.9,1.64-1.38,2.64-.08.2-.21.34-.39.42-.18.08-.35.12-.51.12-.44,0-.82-.12-1.14-.36.4-1.44.7-2.72.9-3.84.2-1.12.38-2.05.54-2.79.16-.74.33-1.31.51-1.71.18-.4.47-.6.87-.6.28,0,.68.02,1.2.06.52.04,1.07.08,1.65.12s1.17.08,1.77.12c.6.04,1.16.06,1.68.06h20.04c.48,0,1.02-.02,1.62-.06s1.2-.08,1.8-.12c.6-.04,1.15-.08,1.65-.12.5-.04.91-.06,1.23-.06.4,0,.69.21.87.63.18.42.35,1.01.51,1.77.16.76.33,1.7.51,2.82.18,1.12.49,2.36.93,3.72-.2.08-.39.16-.57.24-.18.08-.39.12-.63.12-.16,0-.34-.04-.54-.12s-.34-.22-.42-.42c-.44-1-.88-1.88-1.32-2.64-.44-.76-.95-1.38-1.53-1.86-.58-.48-1.28-.84-2.1-1.08-.82-.24-1.83-.36-3.03-.36h-6.18Z"/>
    <path class="cls-3" d="M759.63,60.55c.08-.16.17-.32.27-.48.1-.16.27-.28.51-.36.24-.08.56-.15.96-.21.4-.06.96-.09,1.68-.09.32,0,.74,0,1.26-.03.52-.02,1.08-.04,1.68-.06.6-.02,1.21-.05,1.83-.09s1.19-.08,1.71-.12c.08.4.12.72.12.96,0,.64-.2.98-.6,1.02-1.44.2-2.4.47-2.88.81-.48.34-.72.79-.72,1.35,0,.04.03.57.09,1.59.06,1.02.15,2.72.27,5.1s.27,5.55.45,9.51.39,8.88.63,14.76c.04.76.3,1.32.78,1.68.48.36,1.46.66,2.94.9.2.04.35.15.45.33.1.18.15.39.15.63s-.04.56-.12.96c-1.4-.08-2.67-.15-3.81-.21-1.14-.06-2.19-.09-3.15-.09-.4,0-.9,0-1.5.03-.6.02-1.23.04-1.89.06-.66.02-1.31.05-1.95.09-.64.04-1.2.08-1.68.12-.08-.4-.12-.72-.12-.96,0-.64.2-.96.6-.96,1.6-.32,2.69-.64,3.27-.96.58-.32.87-.86.87-1.62,0-.12-.03-.86-.09-2.22-.06-1.36-.14-3.02-.24-4.98-.1-1.96-.2-4.08-.3-6.36-.1-2.28-.2-4.43-.3-6.45-.1-2.02-.19-3.76-.27-5.22s-.12-2.35-.12-2.67l-13.14,31.74c-.16.36-.31.63-.45.81-.14.18-.33.27-.57.27-.28,0-.46-.02-.54-.06l-14.7-33.72c-.04.4-.09,1.37-.15,2.91-.06,1.54-.14,3.37-.24,5.49-.1,2.12-.21,4.36-.33,6.72-.12,2.36-.23,4.54-.33,6.54-.1,2-.18,3.68-.24,5.04-.06,1.36-.09,2.08-.09,2.16,0,1.24,1.36,2.1,4.08,2.58.4.04.6.36.6.96,0,.24-.04.56-.12.96-1.08-.08-2.14-.15-3.18-.21-1.04-.06-1.96-.09-2.76-.09-.64,0-1.5.03-2.58.09-1.08.06-2.1.13-3.06.21-.08-.4-.12-.72-.12-.96,0-.56.2-.88.6-.96,1.08-.2,1.95-.49,2.61-.87.66-.38,1.03-.95,1.11-1.71,0-.36.04-1.37.12-3.03.08-1.66.17-3.63.27-5.91.1-2.28.21-4.7.33-7.26.12-2.56.23-4.93.33-7.11.1-2.18.18-3.98.24-5.4.06-1.42.09-2.15.09-2.19,0-.64-.25-1.11-.75-1.41s-1.45-.57-2.85-.81c-.4-.04-.6-.38-.6-1.02,0-.24.04-.56.12-.96.52.04,1.11.08,1.77.12s1.32.07,1.98.09c.66.02,1.29.04,1.89.06.6.02,1.08.03,1.44.03.72,0,1.28.03,1.68.09.4.06.72.13.96.21.24.08.41.2.51.36.1.16.19.32.27.48l12.84,29.94,12.18-29.94Z"/>
    <path class="cls-3" d="M790.83,61.87v15.36h9.36c.8,0,1.37-.39,1.71-1.17.34-.78.61-1.73.81-2.85.12-.52.48-.78,1.08-.78.12,0,.28.02.48.06.2.04.36.08.48.12-.08.88-.15,1.88-.21,3-.06,1.12-.09,2.1-.09,2.94,0,.68.02,1.51.06,2.49.04.98.12,2.09.24,3.33-.32.08-.62.12-.9.12-.64,0-1.02-.26-1.14-.78-.2-1.12-.47-2.07-.81-2.85-.34-.78-.91-1.17-1.71-1.17h-9.36v14.16c0,.84.54,1.4,1.62,1.68,1.08.28,2.86.42,5.34.42h3.3c1.16,0,2.17-.17,3.03-.51s1.62-.8,2.28-1.38,1.25-1.27,1.77-2.07c.52-.8,1.02-1.68,1.5-2.64.12-.28.42-.42.9-.42.2,0,.41.06.63.18s.43.24.63.36c-.36.76-.67,1.67-.93,2.73-.26,1.06-.51,2.07-.75,3.03s-.49,1.78-.75,2.46c-.26.68-.59,1.02-.99,1.02-.32,0-.78-.02-1.38-.06-.6-.04-1.25-.07-1.95-.09-.7-.02-1.41-.05-2.13-.09s-1.34-.06-1.86-.06h-13.14c-1.16,0-2.4.03-3.72.09-1.32.06-2.58.13-3.78.21-.08-.4-.12-.72-.12-.96,0-.56.2-.88.6-.96,1.52-.28,2.61-.58,3.27-.9s.99-.88.99-1.68v-30.54c0-.8-.29-1.35-.87-1.65-.58-.3-1.71-.61-3.39-.93-.4-.08-.6-.42-.6-1.02,0-.2,0-.37.03-.51.02-.14.05-.29.09-.45,1.72.12,3.16.2,4.32.24,1.16.04,2.2.06,3.12.06h11.82c1.8,0,3.36-.06,4.68-.18,1.32-.12,2.2-.18,2.64-.18.52,0,.87.33,1.05.99.18.66.33,1.45.45,2.37.12.92.26,1.9.42,2.94.16,1.04.46,1.92.9,2.64-.32.24-.68.36-1.08.36-.52,0-.86-.18-1.02-.54-.48-1.04-.94-1.93-1.38-2.67-.44-.74-.95-1.35-1.53-1.83-.58-.48-1.28-.84-2.1-1.08-.82-.24-1.83-.36-3.03-.36h-8.88Z"/>
    <path class="cls-3" d="M851.25,88.87v-25.08c0-.88-.32-1.5-.96-1.86-.64-.36-1.72-.64-3.24-.84-.44-.04-.66-.38-.66-1.02,0-.24.04-.56.12-.96,1,.08,2.02.15,3.06.21,1.04.06,2.02.09,2.94.09s1.8-.03,2.76-.09c.96-.06,1.9-.13,2.82-.21.08.4.12.72.12.96,0,.64-.2.98-.6,1.02-1.36.2-2.29.48-2.79.84-.5.36-.75.94-.75,1.74v35.34c-.08.04-.22.07-.42.09-.2.02-.36.03-.48.03-.28,0-.54-.07-.78-.21-.24-.14-.52-.43-.84-.87l-24.36-32.1v28.26c0,.8.28,1.36.84,1.68s1.64.62,3.24.9c.4.08.6.4.6.96,0,.24-.04.56-.12.96-1-.08-2.01-.15-3.03-.21-1.02-.06-1.97-.09-2.85-.09-.8,0-1.74.03-2.82.09-1.08.06-2.06.13-2.94.21-.08-.4-.12-.72-.12-.96,0-.56.22-.88.66-.96,1.44-.28,2.41-.58,2.91-.9s.75-.88.75-1.68v-30.84c0-.64-.23-1.13-.69-1.47-.46-.34-1.41-.61-2.85-.81-.44-.08-.66-.42-.66-1.02,0-.2.02-.38.06-.54,0-.12.02-.26.06-.42.8.08,1.56.14,2.28.18.64.04,1.32.07,2.04.09.72.02,1.36.03,1.92.03,1.16,0,1.93.04,2.31.12s.69.28.93.6l21.54,28.74Z"/>
    <path class="cls-3" d="M886.59,61.87v32.04c0,.92.38,1.57,1.14,1.95.76.38,2.04.67,3.84.87.44,0,.66.32.66.96,0,.28-.04.62-.12,1.02-1.28-.08-2.63-.15-4.05-.21-1.42-.06-2.85-.09-4.29-.09s-2.83.03-4.29.09c-1.46.06-2.83.13-4.11.21-.08-.4-.12-.74-.12-1.02,0-.56.2-.88.6-.96,1.8-.24,3.1-.54,3.9-.9.8-.36,1.2-1,1.2-1.92v-32.04h-6.18c-1.2,0-2.21.12-3.03.36-.82.24-1.53.6-2.13,1.08-.6.48-1.12,1.1-1.56,1.86-.44.76-.9,1.64-1.38,2.64-.08.2-.21.34-.39.42-.18.08-.35.12-.51.12-.44,0-.82-.12-1.14-.36.4-1.44.7-2.72.9-3.84.2-1.12.38-2.05.54-2.79.16-.74.33-1.31.51-1.71.18-.4.47-.6.87-.6.28,0,.68.02,1.2.06.52.04,1.07.08,1.65.12s1.17.08,1.77.12c.6.04,1.16.06,1.68.06h20.04c.48,0,1.02-.02,1.62-.06s1.2-.08,1.8-.12c.6-.04,1.15-.08,1.65-.12.5-.04.91-.06,1.23-.06.4,0,.69.21.87.63.18.42.35,1.01.51,1.77.16.76.33,1.7.51,2.82.18,1.12.49,2.36.93,3.72-.2.08-.39.16-.57.24-.18.08-.39.12-.63.12-.16,0-.34-.04-.54-.12s-.34-.22-.42-.42c-.44-1-.88-1.88-1.32-2.64-.44-.76-.95-1.38-1.53-1.86-.58-.48-1.28-.84-2.1-1.08-.82-.24-1.83-.36-3.03-.36h-6.18Z"/>
    <path class="cls-3" d="M935.13,68.83c-.4.08-.7.12-.9.12-.52,0-.9-.1-1.14-.3s-.42-.42-.54-.66c-1.04-2.28-2.28-3.94-3.72-4.98-1.44-1.04-3.4-1.56-5.88-1.56-.96,0-1.87.13-2.73.39-.86.26-1.61.64-2.25,1.14s-1.15,1.11-1.53,1.83c-.38.72-.57,1.52-.57,2.4,0,1.88.79,3.42,2.37,4.62,1.58,1.2,3.91,2.42,6.99,3.66,3.84,1.52,6.67,3.21,8.49,5.07,1.82,1.86,2.73,4.15,2.73,6.87,0,1.64-.25,3.17-.75,4.59-.5,1.42-1.28,2.66-2.34,3.72-1.06,1.06-2.43,1.89-4.11,2.49-1.68.6-3.7.9-6.06.9-2.48,0-4.73-.26-6.75-.78-2.02-.52-3.73-1.2-5.13-2.04-.12-1.68-.3-3.3-.54-4.86-.24-1.56-.52-3.12-.84-4.68.28-.12.62-.18,1.02-.18.48,0,.85.11,1.11.33.26.22.49.57.69,1.05,1,2.88,2.29,5,3.87,6.36,1.58,1.36,3.79,2.04,6.63,2.04,1.28,0,2.4-.18,3.36-.54s1.76-.86,2.4-1.5c.64-.64,1.12-1.36,1.44-2.16.32-.8.48-1.66.48-2.58,0-2.08-.71-3.72-2.13-4.92s-3.45-2.28-6.09-3.24c-1.72-.64-3.28-1.31-4.68-2.01-1.4-.7-2.6-1.51-3.6-2.43-1-.92-1.77-1.99-2.31-3.21-.54-1.22-.81-2.67-.81-4.35,0-1.48.27-2.87.81-4.17.54-1.3,1.32-2.43,2.34-3.39,1.02-.96,2.25-1.72,3.69-2.28,1.44-.56,3.06-.84,4.86-.84s3.68.18,5.4.54c1.72.36,3.66.96,5.82,1.8.08,1.2.19,2.49.33,3.87.14,1.38.33,2.67.57,3.87Z"/>
  </g>
</svg>
