<svg xmlns="http://www.w3.org/2000/svg" viewBox="0 0 157.88 157.88">
  <rect width="157.88" height="157.88" rx="30" fill="#1B3F6E"/>
  <g transform="translate(78.94,78.94) scale(0.86) translate(-78.94,-78.94)" fill="none" stroke="#c89b3c" stroke-width="3.4" stroke-miterlimit="10">
    <circle cx="78.94" cy="78.94" r="67.51"/>
    <circle cx="78.94" cy="78.94" r="59.21"/>
    <path d="M78.94,0v157.88"/>
    <path d="M157.88,78.94H0"/>
    <path d="M126.68,31.2c-31.83,31.83-63.65,63.65-95.48,95.48"/>
    <path d="M31.2,31.2c31.83,31.83,63.65,63.65,95.48,95.48"/>
    <path d="M31.2,31.2c6.93.18,39.89,1.75,66.81,28.67,26.92,26.92,28.49,59.87,28.67,66.8"/>
    <path d="M31.2,126.68c.18-6.93,1.75-39.89,28.67-66.81,26.92-26.92,59.87-28.49,66.8-28.67"/>
    <path d="M126.68,31.2c-.18,6.93-1.75,39.89-28.67,66.81-26.92,26.92-59.87,28.49-66.8,28.67"/>
  </g>
</svg>
